<svg xmlns="http://www.w3.org/2000/svg" width="170" height="54" viewBox="0 0 170 54" fill="none"><g clip-path="url(#clip0_171_1654)"><mask id="mask0_171_1654" style="mask-type:luminance" maskUnits="userSpaceOnUse" x="35" y="0" width="20" height="19"><path d="M35.8062 0L54.1431 18.2885V0H35.8062Z" fill="white"></path></mask><g mask="url(#mask0_171_1654)"><path d="M26.6421 9.13987L44.9791 -9.13977L63.3072 9.13987L44.9791 27.4283L26.6421 9.13987Z" fill="url(#paint0_linear_171_1654)"></path></g><path d="M17.9828 0H0V18.2885H15.9286C17.0177 18.2885 17.9031 19.1715 17.9031 20.2577V54H36.2401V18.209C36.2401 8.15078 28.0677 0 17.9828 0Z" fill="#0D0545"></path><path d="M70.4349 12.9635H63.6172V8.23022H82.6714V12.9635H75.8536V34.175H70.4349V12.9635Z" fill="#0D0545"></path><path d="M97.3337 21.6442C96.7759 18.8537 94.5358 17.5644 92.4728 17.5644C90.153 17.5644 87.9749 18.889 87.24 21.6442H97.3337ZM81.5645 23.9225C81.5645 17.6351 86.1686 13.2285 92.3665 13.2285C97.8207 13.2285 102.319 16.7608 102.868 21.9798C102.974 23.1189 102.974 24.4082 102.868 25.5121H87.0895C87.6384 28.7441 89.9671 30.2895 92.4728 30.2895C94.4296 30.2895 96.4129 29.3358 97.077 27.5343H102.531C101.761 31.6494 97.8473 34.6254 92.3577 34.6254C86.1332 34.6166 81.5645 30.21 81.5645 23.9225Z" fill="#0D0545"></path><path d="M104.842 23.9225C104.842 17.6704 109.34 13.2285 115.565 13.2285C120.762 13.2285 125.039 16.3546 125.844 21.1674H120.24C119.691 19.0745 117.628 17.9353 115.706 17.9353C112.793 17.9353 110.217 20.0282 110.217 23.9225C110.217 27.8169 112.793 29.9098 115.706 29.9098C117.619 29.9098 119.691 28.7706 120.24 26.6777H125.844C125.03 31.4905 120.762 34.6166 115.565 34.6166C109.331 34.6166 104.842 30.1747 104.842 23.9225Z" fill="#0D0545"></path><path d="M128.625 9.98762H125.827V5.7312H133.937V15.5068C134.822 14.2529 136.7 13.2285 138.949 13.2285C143.482 13.2285 146.174 16.2398 146.174 21.2027V34.175H140.87V21.6089C140.87 19.2246 139.436 17.6792 137.479 17.6792C135.522 17.6792 133.937 19.0745 133.937 21.653V34.175H128.633V9.98762H128.625Z" fill="#0D0545"></path><path d="M150.123 12.9635H147.652V8.23022H152.186C155.683 8.23022 157.418 10.1377 157.418 13.6346V34.175H151.964V14.8091C151.964 13.4845 151.407 12.9635 150.123 12.9635Z" fill="#0D0545"></path><path d="M164.661 11.4623C164.325 11.2769 164.068 11.012 163.873 10.6676C163.687 10.3232 163.59 9.92577 163.59 9.4754C163.59 9.0427 163.687 8.64531 163.873 8.30091C164.059 7.95652 164.325 7.68276 164.652 7.48849C164.98 7.29421 165.361 7.19707 165.777 7.19707C166.246 7.19707 166.653 7.31187 166.99 7.5503C167.335 7.7799 167.574 8.11547 167.725 8.55701L167.034 8.78661C166.945 8.49519 166.786 8.26559 166.582 8.10664C166.37 7.93885 166.104 7.85938 165.786 7.85938C165.361 7.85938 165.015 8.01833 164.732 8.32741C164.449 8.63648 164.307 9.02504 164.307 9.48423C164.307 9.96109 164.449 10.3496 164.732 10.6499C165.015 10.9501 165.369 11.1003 165.794 11.1003C166.113 11.1003 166.379 11.0208 166.591 10.8618C166.795 10.7029 166.945 10.4998 167.025 10.2437L167.707 10.4644C167.548 10.8795 167.308 11.1974 166.99 11.4182C166.671 11.6389 166.273 11.7537 165.794 11.7537C165.378 11.7449 164.998 11.6478 164.661 11.4623ZM167.565 12.5043C168.105 12.1953 168.53 11.7626 168.84 11.2327C169.159 10.694 169.309 10.1112 169.309 9.4754C169.309 8.83959 169.15 8.25676 168.84 7.71809C168.521 7.17941 168.096 6.75553 167.565 6.44646C167.025 6.12855 166.441 5.97843 165.803 5.97843C165.166 5.97843 164.581 6.13738 164.041 6.44646C163.501 6.76437 163.076 7.18824 162.766 7.71809C162.448 8.25676 162.297 8.83959 162.297 9.4754C162.297 10.1112 162.456 10.694 162.766 11.2327C163.085 11.7714 163.51 12.1953 164.041 12.5043C164.581 12.8223 165.166 12.9724 165.803 12.9724C166.441 12.9724 167.034 12.8134 167.565 12.5043ZM163.705 13.0872C163.067 12.7075 162.554 12.2041 162.182 11.5683C161.801 10.9325 161.615 10.226 161.615 9.4754C161.615 8.71596 161.801 8.01833 162.182 7.38252C162.554 6.7467 163.067 6.23452 163.705 5.86363C164.342 5.49274 165.051 5.29846 165.803 5.29846C166.565 5.29846 167.264 5.48391 167.902 5.86363C168.539 6.24335 169.053 6.7467 169.425 7.38252C169.805 8.01833 169.991 8.72479 169.991 9.4754C169.991 10.2348 169.805 10.9325 169.425 11.5683C169.053 12.2041 168.539 12.7163 167.902 13.0872C167.264 13.4581 166.556 13.6523 165.803 13.6523C165.051 13.6523 164.351 13.4581 163.705 13.0872Z" fill="#0D0545"></path><path d="M69.7798 50.8563L71.2319 50.3971C71.4267 51.0505 71.7188 51.5892 72.1173 51.9866C72.5069 52.3928 73.1444 52.5959 74.0121 52.5959C74.7293 52.5959 75.3048 52.4546 75.7563 52.1632C76.2079 51.8806 76.4293 51.4656 76.4293 50.9357C76.4293 50.6885 76.385 50.4589 76.2787 50.2646C76.1814 50.0703 75.96 49.876 75.6058 49.6906C75.2517 49.5052 74.7293 49.355 74.0298 49.2402C72.8256 49.0283 71.8871 48.7016 71.2142 48.2424C70.5412 47.792 70.2048 47.0944 70.2048 46.1583C70.2048 45.2046 70.5678 44.4628 71.2939 43.933C72.0199 43.4031 72.923 43.1382 74.0032 43.1382C75.0569 43.1382 75.9069 43.4031 76.5621 43.933C77.2173 44.4628 77.6511 45.2134 77.8725 46.176L76.4027 46.5557C76.2876 45.964 76.0397 45.4872 75.6501 45.1074C75.2605 44.7277 74.7116 44.5423 74.0121 44.5423C73.1975 44.5423 72.6131 44.7012 72.2678 45.0103C71.9136 45.3282 71.7454 45.6991 71.7454 46.1318C71.7454 46.6087 71.9579 46.9619 72.3829 47.1915C72.8079 47.4211 73.4543 47.6154 74.3043 47.7655C75.4819 47.9774 76.385 48.3218 77.0225 48.7899C77.66 49.2667 77.9787 49.9732 77.9787 50.9092C77.9787 51.5274 77.8017 52.0661 77.4475 52.5341C77.0933 53.0021 76.6064 53.3642 76.0043 53.6114C75.4022 53.8675 74.7381 53.9912 74.0032 53.9912C71.7897 54 70.3819 52.9491 69.7798 50.8563Z" fill="#0D0545"></path><path d="M87.559 52.0307C88.1168 51.6775 88.5595 51.2007 88.8694 50.5913C89.1793 49.982 89.3387 49.3109 89.3387 48.5691C89.3387 47.8096 89.1793 47.1385 88.8694 46.538C88.5507 45.9375 88.1168 45.4607 87.559 45.1163C87.0012 44.763 86.3637 44.5953 85.6465 44.5953C84.9293 44.5953 84.3007 44.7719 83.7429 45.1163C83.1939 45.4695 82.7601 45.9375 82.4502 46.538C82.1403 47.1385 81.9897 47.8185 81.9897 48.5691C81.9897 49.3109 82.1403 49.982 82.4502 50.5913C82.7601 51.2007 83.1939 51.6775 83.7517 52.0307C84.3095 52.384 84.947 52.5518 85.6465 52.5518C86.3637 52.5518 87.0012 52.3751 87.559 52.0307ZM82.8309 53.2229C82.034 52.7107 81.4231 52.0307 81.0158 51.2007C80.5996 50.3706 80.396 49.4963 80.396 48.5691C80.396 47.6419 80.6085 46.7676 81.0335 45.9375C81.4585 45.1074 82.0783 44.4363 82.8752 43.9153C83.672 43.3943 84.6017 43.1382 85.6465 43.1382C86.7267 43.1382 87.6653 43.3943 88.4621 43.9153C89.259 44.4363 89.87 45.1074 90.3038 45.9375C90.7288 46.7676 90.9413 47.6419 90.9413 48.5691C90.9413 49.4875 90.7288 50.3706 90.3038 51.2007C89.8788 52.0307 89.2679 52.7107 88.4621 53.2229C87.6653 53.7439 86.7267 54 85.6465 54C84.5663 54 83.6278 53.7351 82.8309 53.2229Z" fill="#0D0545"></path><path d="M95.5278 39.0319H93.9341V53.7086H95.5278V39.0319Z" fill="#0D0545"></path><path d="M107.622 53.7085H106.276L106.02 52.3221C105.196 53.4436 104.045 53.9999 102.575 53.9999C101.513 53.9999 100.654 53.682 100.008 53.0462C99.3612 52.4104 99.0425 51.4478 99.0425 50.1674V43.4384H100.636V49.7877C100.636 50.7944 100.849 51.5008 101.291 51.907C101.725 52.3133 102.319 52.5164 103.08 52.5164C103.585 52.5164 104.063 52.3839 104.523 52.1278C104.975 51.8717 105.347 51.492 105.612 51.0063C105.887 50.5206 106.02 49.9466 106.02 49.2843V43.4384H107.613V53.7085H107.622Z" fill="#0D0545"></path><path d="M112.607 53.2847C112.147 52.8078 111.916 52.1631 111.916 51.3331V44.8778H110.004V43.4295H111.916V40.745H113.51V43.4295H116.476V44.8778H113.51V51.1918C113.51 51.651 113.608 51.9865 113.811 52.1985C114.015 52.4104 114.316 52.5164 114.705 52.5164C115.13 52.5164 115.485 52.3839 115.777 52.119L116.6 53.2317C116.45 53.4259 116.184 53.6026 115.812 53.7703C115.44 53.9293 114.989 54.0088 114.458 54.0088C113.687 53.9999 113.067 53.7615 112.607 53.2847Z" fill="#0D0545"></path><path d="M119.133 43.4296H120.726V53.6997H119.133V43.4296ZM119.053 41.4338C118.823 41.2042 118.708 40.9216 118.708 40.5861C118.708 40.2505 118.823 39.9679 119.053 39.7383C119.283 39.5087 119.575 39.3939 119.921 39.3939C120.239 39.3939 120.523 39.5087 120.753 39.7383C120.983 39.9679 121.098 40.2505 121.098 40.5861C121.098 40.9216 120.983 41.2042 120.753 41.4338C120.523 41.6634 120.248 41.7782 119.921 41.7782C119.575 41.7782 119.283 41.6634 119.053 41.4338Z" fill="#0D0545"></path><path d="M130.9 52.0307C131.458 51.6775 131.9 51.2007 132.21 50.5913C132.529 49.982 132.68 49.3109 132.68 48.5691C132.68 47.8096 132.52 47.1385 132.21 46.538C131.892 45.9375 131.458 45.4607 130.9 45.1163C130.342 44.763 129.705 44.5953 128.987 44.5953C128.27 44.5953 127.642 44.7719 127.084 45.1163C126.526 45.4695 126.101 45.9375 125.791 46.538C125.481 47.1385 125.331 47.8185 125.331 48.5691C125.331 49.3109 125.481 49.982 125.791 50.5913C126.101 51.2007 126.535 51.6775 127.093 52.0307C127.65 52.384 128.288 52.5518 128.987 52.5518C129.696 52.5518 130.333 52.3751 130.9 52.0307ZM126.163 53.2229C125.366 52.7107 124.755 52.0307 124.348 51.2007C123.932 50.3706 123.728 49.4963 123.728 48.5691C123.728 47.6419 123.941 46.7676 124.366 45.9375C124.791 45.1074 125.41 44.4363 126.207 43.9153C127.004 43.3943 127.934 43.1382 128.979 43.1382C130.059 43.1382 130.997 43.3943 131.794 43.9153C132.591 44.4363 133.202 45.1074 133.636 45.9375C134.061 46.7676 134.273 47.6419 134.273 48.5691C134.273 49.4875 134.061 50.3706 133.636 51.2007C133.211 52.0307 132.6 52.7107 131.794 53.2229C130.997 53.7439 130.059 54 128.979 54C127.907 54 126.969 53.7351 126.163 53.2229Z" fill="#0D0545"></path><path d="M137.239 43.4296H138.585L138.815 44.816C139.639 43.6945 140.79 43.1382 142.26 43.1382C143.34 43.1382 144.199 43.4561 144.845 44.0919C145.491 44.7277 145.81 45.6903 145.81 46.9707V53.6998H144.216V47.3505C144.216 46.3437 144.004 45.6373 143.561 45.2311C143.127 44.8249 142.534 44.6217 141.773 44.6217C141.25 44.6217 140.772 44.7542 140.321 45.0103C139.869 45.2664 139.515 45.6461 139.24 46.1318C138.966 46.6175 138.833 47.1915 138.833 47.8538V53.6998H137.239V43.4296Z" fill="#0D0545"></path><path d="M148.706 50.8563L150.158 50.3971C150.352 51.0505 150.645 51.5892 151.043 51.9866C151.433 52.3928 152.07 52.5959 152.938 52.5959C153.655 52.5959 154.231 52.4546 154.682 52.1632C155.134 51.8806 155.355 51.4656 155.355 50.9357C155.355 50.6885 155.311 50.4589 155.205 50.2646C155.107 50.0703 154.886 49.876 154.532 49.6906C154.177 49.5052 153.655 49.355 152.956 49.2402C151.751 49.0283 150.813 48.7016 150.14 48.2424C149.467 47.792 149.131 47.0944 149.131 46.1583C149.131 45.2046 149.494 44.4628 150.22 43.933C150.946 43.4031 151.849 43.1382 152.929 43.1382C153.983 43.1382 154.833 43.4031 155.488 43.933C156.143 44.4628 156.577 45.2134 156.798 46.176L155.328 46.5557C155.213 45.964 154.965 45.4872 154.576 45.1074C154.186 44.7277 153.637 44.5423 152.938 44.5423C152.123 44.5423 151.539 44.7012 151.194 45.0103C150.839 45.3282 150.671 45.6991 150.671 46.1318C150.671 46.6087 150.884 46.9619 151.309 47.1915C151.734 47.4211 152.38 47.6154 153.23 47.7655C154.408 47.9774 155.311 48.3218 155.948 48.7899C156.586 49.2667 156.905 49.9732 156.905 50.9092C156.905 51.5274 156.727 52.0661 156.373 52.5341C156.019 53.0021 155.532 53.3642 154.93 53.6114C154.328 53.8675 153.664 53.9912 152.929 53.9912C150.715 54 149.299 52.9491 148.706 50.8563Z" fill="#0D0545"></path></g><defs><linearGradient id="paint0_linear_171_1654" x1="-1.09936" y1="55.0955" x2="51.4776" y2="2.37908" gradientUnits="userSpaceOnUse"><stop stop-color="#780AEB"></stop><stop offset="1" stop-color="#E857F5"></stop></linearGradient><clipPath id="clip0_171_1654"><rect width="170" height="54" fill="white"></rect></clipPath></defs></svg>